<?xml version="1.0" encoding="UTF-8"?>
<svg width="366px" height="366px" viewBox="0 0 366 366" version="1.1" xmlns="http://www.w3.org/2000/svg" xmlns:xlink="http://www.w3.org/1999/xlink">
    <!-- Generator: Sketch 47.1 (45422) - http://www.bohemiancoding.com/sketch -->
    <title>38coLogoWhite</title>
    <desc>Created with Sketch.</desc>
    <defs></defs>
    <g id="Page-1" stroke="none" stroke-width="1" fill="none" fill-rule="evenodd">
        <g id="38coLogoWhite" fill-rule="nonzero" fill="#FFFFFF">
            <path d="M212.892062,199.331318 C204.677237,192.241038 194.110182,188.459719 183.25274,188.725173 L183.25274,188.725173 L183.25274,169.352098 L183.25274,169.352098 C192.592884,169.681877 201.697521,166.385636 208.653485,160.156018 C215.294898,153.995524 218.926473,145.258942 218.604926,136.215557 C218.992584,127.254417 215.314686,118.595793 208.592057,112.642938 C201.497091,106.733279 192.456033,103.663649 183.222025,104.029277 C173.988018,103.663649 164.946959,106.733279 157.851994,112.642938 C151.129365,118.595793 147.451467,127.254417 147.839125,136.215557 C147.839125,136.215557 147.839125,136.491439 147.839125,136.644707 L123.574809,136.644707 L123.574809,136.644707 C123.623446,144.757266 126.058512,152.676904 130.577675,159.420332 C135.325735,166.800801 141.611179,173.073819 149.006269,177.812491 L149.006269,178.946675 C139.378274,183.340809 131.167439,190.325327 125.294811,199.116743 C119.80086,207.448075 116.914165,217.222092 117.001944,227.195441 L117.001944,227.195441 L141.327688,227.195441 C141.409664,231.874165 142.455142,236.486042 144.399121,240.744332 C146.536681,245.222604 149.555425,249.225739 153.27556,252.515314 C157.147861,255.932784 161.641921,258.57602 166.513433,260.301328 C177.255673,263.899557 188.881235,263.899557 199.623474,260.301328 C204.494987,258.57602 208.989047,255.932784 212.861348,252.515314 C216.581482,249.225739 219.600227,245.222604 221.737787,240.744332 C223.940723,236.034678 225.053451,230.890627 224.993505,225.693414 C225.194098,215.525046 220.739052,205.82006 212.892062,199.331318 Z M159.541282,114.666076 C166.169415,109.166922 174.610685,106.325948 183.222025,106.69614 C191.833787,106.322986 200.276098,109.164311 206.902769,114.666076 C213.095096,120.118221 216.482553,128.074275 216.117066,136.307517 C216.422114,144.654254 213.055983,152.716996 206.902769,158.378109 C200.402953,164.146134 191.912191,167.168629 183.222025,166.807849 L183.222025,166.807849 C174.53186,167.168629 166.041097,164.146134 159.541282,158.378109 C153.489719,152.825725 150.131506,144.938354 150.326985,136.736668 C150.326985,136.736668 150.326985,136.460785 150.326985,136.307517 C149.961498,128.074275 153.348955,120.118221 159.541282,114.666076 L159.541282,114.666076 Z M219.618499,239.702109 C217.616831,243.884676 214.785103,247.618087 211.294917,250.676098 C207.701465,253.85765 203.531246,256.323619 199.009188,257.941001 C188.823162,261.341144 177.805174,261.341144 167.619149,257.941001 C163.09709,256.323619 158.926872,253.85765 155.33342,250.676098 C151.765668,247.638932 148.859653,243.904053 146.794838,239.702109 C144.925901,235.808052 143.880382,231.571637 143.723405,227.256748 C143.723405,226.76629 143.723405,226.245179 143.723405,225.754722 C143.598426,216.331914 147.685157,207.34315 154.872705,201.231842 C162.748996,194.565148 172.805427,191.019628 183.129882,191.269422 L183.129882,191.269422 C193.439134,190.939364 203.49482,194.49622 211.294917,201.231842 C218.687179,207.211598 222.902915,216.259772 222.720645,225.754722 C222.753971,230.577866 221.693447,235.34603 219.618499,239.702109 L219.618499,239.702109 Z" id="Shape"></path>
            <path d="M161.307214,156.219825 C167.291244,161.532479 175.080586,164.310043 183.048569,163.972471 L183.048569,163.972471 C190.996307,164.297263 198.76211,161.520325 204.729109,156.219825 C210.292063,151.039424 213.306778,143.651688 212.969539,136.026174 C213.34059,128.554714 210.306014,121.321429 204.729109,116.384094 C198.622288,111.306977 190.866857,108.687268 182.957347,109.029805 C175.068501,108.702554 167.337402,111.321359 161.246399,116.384094 C155.65493,121.34773 152.629372,128.62011 153.036377,136.118102 C153.036377,136.118102 153.036377,136.393888 153.036377,136.547102 C152.847005,144.000206 155.862311,151.172307 161.307214,156.219825 L161.307214,156.219825 Z" id="Shape"></path>
            <path d="M209.311097,202.345802 C201.989866,196.081339 192.581125,192.754121 182.923016,193.01417 L182.923016,193.01417 C173.188217,192.798551 163.708112,196.116165 156.257814,202.345802 C149.617149,207.946271 145.854057,216.21063 146.004336,224.864103 C146.004336,225.384227 146.004336,225.873755 146.004336,226.363283 C146.126988,230.280087 147.048823,234.131351 148.713963,237.683625 C150.566697,241.54923 153.184799,245.003971 156.41177,247.841336 C159.791943,250.805644 163.71116,253.100688 167.95848,254.602945 C177.612382,257.799018 188.048902,257.799018 197.702804,254.602945 C201.971928,253.107719 205.912618,250.812341 209.311097,247.841336 C212.615791,245.024603 215.308325,241.568418 217.224442,237.683625 C219.108023,233.66152 220.055221,229.269355 219.995652,224.833507 C220.149754,216.09397 216.200177,207.781326 209.311097,202.345802 Z" id="Shape"></path>
            <path d="M362.458771,174.241783 L191.605042,3.54061008 C186.839308,-1.18020336 179.160067,-1.18020336 174.394333,3.54061008 L3.54060404,174.241783 C-1.18020135,179.007525 -1.18020135,186.686778 3.54060404,191.45252 L174.241485,362.45939 C179.007219,367.180203 186.68646,367.180203 191.452194,362.45939 L362.305923,191.605369 C364.641139,189.329823 365.970825,186.215868 365.999526,182.955417 C366.028227,179.694967 364.753566,176.558085 362.458771,174.241783 Z M231.528994,269.863786 C218.076126,281.490733 200.792139,287.720385 183.014972,287.349651 C165.237328,287.723301 147.952326,281.493284 134.500951,269.863786 C121.632546,259.19672 114.310321,243.258762 114.600114,226.546529 L114.600114,226.546529 C114.525211,216.11538 117.535019,205.894777 123.251322,197.169053 C128.717212,188.961128 136.173922,182.272164 144.925198,177.726728 C138.368169,173.093713 132.755124,167.252401 128.387022,160.51599 C123.633939,153.376968 121.073014,145.003473 121.019738,136.427071 L121.019738,136.427071 C120.760996,120.824388 127.139193,105.8456 138.566713,95.219123 C149.999759,84.3974513 164.917744,78.8949063 182.923263,78.8949063 C200.928783,78.8949063 215.846768,84.3974513 227.279814,95.219123 C238.73934,105.874235 245.120454,120.904339 244.826789,136.54935 C244.773513,145.125752 242.212588,153.499247 237.459505,160.638269 C233.111176,167.343404 227.530366,173.162809 221.013037,177.787867 C229.762028,182.336607 237.217987,189.024897 242.686914,197.230193 C248.399878,205.95746 251.409382,216.177032 251.338122,226.607669 C251.605131,243.27777 244.324654,259.175751 231.528994,269.863786 Z" id="Shape"></path>
        </g>
    </g>
</svg>